<?xml version="1.0" standalone="no"?>
<!DOCTYPE svg PUBLIC "-//W3C//DTD SVG 20010904//EN"
 "http://www.w3.org/TR/2001/REC-SVG-20010904/DTD/svg10.dtd">
            <svg version="1.0" xmlns="http://www.w3.org/2000/svg" width="512.000000pt" height="512.000000pt" viewBox="0 0 512.000000 512.000000" preserveAspectRatio="xMidYMid meet">
              <g transform="translate(0.000000,512.000000) scale(0.100000,-0.100000)" fill="#000000" stroke="none">
                <path d="M690 2635 l0 -2175 -140 0 -140 0 0 -75 0 -75 2150 0 2150 0 0 75 0 75 -140 0 -140 0 0 1740 0 1740 -670 0 -670 0 0 435 0 435 -1200 0 -1200 0 0 -2175z m2250 -75 l0 -2100 -120 0 -120 0 0 675 0 675 -350 0 -350 0 0 -675 0 -675 -580 0 -580 0 0 2100 0 2100 1050 0 1050 0 0 -2100z m1340 -435 l0 -1665 -595 0 -595 0 0 1665 0 1665 595 0 595 0 0 -1665z m-1730 -1065 l0 -600 -200 0 -200 0 0 600 0 600 200 0 200 0 0 -600z"/>
                <path d="M1090 4135 l0 -345 345 0 345 0 0 345 0 345 -345 0 -345 0 0 -345z m538 3 l2 -198 -195 0 -195 0 0 193 c0 107 3 197 7 201 4 3 90 5 192 4 l186 -3 3 -197z"/>
                <path d="M1990 4135 l0 -345 345 0 345 0 0 345 0 345 -345 0 -345 0 0 -345z m538 3 l2 -198 -195 0 -195 0 0 193 c0 107 3 197 7 201 4 3 90 5 192 4 l186 -3 3 -197z"/>
                <path d="M1090 3245 l0 -345 345 0 345 0 0 345 0 345 -345 0 -345 0 0 -345z m538 3 l2 -198 -195 0 -195 0 0 193 c0 107 3 197 7 201 4 3 90 5 192 4 l186 -3 3 -197z"/>
                <path d="M1990 3245 l0 -345 345 0 345 0 0 345 0 345 -345 0 -345 0 0 -345z m538 3 l2 -198 -195 0 -195 0 0 193 c0 107 3 197 7 201 4 3 90 5 192 4 l186 -3 3 -197z"/>
                <path d="M1090 2355 l0 -345 345 0 345 0 0 345 0 345 -345 0 -345 0 0 -345z m540 0 l0 -195 -195 0 -195 0 0 195 0 195 195 0 195 0 0 -195z"/>
                <path d="M1990 2355 l0 -345 345 0 345 0 0 345 0 345 -345 0 -345 0 0 -345z m540 0 l0 -195 -195 0 -195 0 0 195 0 195 195 0 195 0 0 -195z"/>
                <path d="M1102 1468 l3 -343 345 0 345 0 3 343 2 342 -350 0 -350 0 2 -342z m548 -3 l0 -195 -197 2 -198 3 -3 193 -2 192 200 0 200 0 0 -195z"/>
                <path d="M3340 3245 l0 -345 345 0 345 0 0 345 0 345 -345 0 -345 0 0 -345z m538 3 l2 -198 -195 0 -195 0 0 193 c0 107 3 197 7 201 4 3 90 5 192 4 l186 -3 3 -197z"/>
                <path d="M3340 2355 l0 -345 345 0 345 0 0 345 0 345 -345 0 -345 0 0 -345z m540 0 l0 -195 -195 0 -195 0 0 195 0 195 195 0 195 0 0 -195z"/>
                <path d="M3352 1468 l3 -343 345 0 345 0 3 343 2 342 -350 0 -350 0 2 -342z m548 -3 l0 -195 -197 2 -198 3 -3 193 -2 192 200 0 200 0 0 -195z"/>
              </g>
            </svg>
