<?xml version="1.0" standalone="no"?>
<!DOCTYPE svg PUBLIC "-//W3C//DTD SVG 20010904//EN"
 "http://www.w3.org/TR/2001/REC-SVG-20010904/DTD/svg10.dtd">
<svg version="1.0" xmlns="http://www.w3.org/2000/svg"
 width="512.000000pt" height="512.000000pt" viewBox="0 0 512.000000 512.000000"
 preserveAspectRatio="xMidYMid meet">

<g transform="translate(0.000000,512.000000) scale(0.100000,-0.100000)"
fill="#000000" stroke="none">
<path d="M3225 3899 c-748 -175 -1565 -366 -1815 -424 -250 -58 -464 -110
-475 -115 -12 -5 218 -9 562 -9 l581 -1 254 60 c139 32 512 120 828 194 316
74 587 137 601 141 24 6 26 4 27 -37 5 -118 88 -228 201 -266 41 -14 150 -16
184 -3 24 9 26 7 37 -40 l12 -49 134 0 134 0 0 -199 0 -199 -73 -6 c-40 -4
-78 -10 -84 -14 -8 -5 -2 -49 23 -152 18 -80 34 -148 34 -152 0 -5 23 -8 50
-8 l50 0 -2 -192 -3 -193 -75 -5 c-121 -9 -184 -63 -184 -159 1 -100 55 -150
178 -162 44 -4 82 -8 84 -8 1 -1 2 -24 2 -52 0 -48 1 -51 23 -46 12 3 153 36
312 73 160 37 291 68 293 69 1 1 -6 38 -16 81 l-19 79 -65 7 c-104 10 -180 57
-228 141 -76 133 -28 307 105 376 28 14 52 27 54 28 2 1 -4 36 -14 77 l-16 76
-57 1 c-103 1 -188 51 -237 140 -26 47 -30 64 -30 134 0 63 5 89 22 121 29 54
75 99 127 126 22 11 42 22 44 23 1 1 -5 34 -15 74 l-17 71 -41 0 c-158 0 -285
125 -285 280 0 108 68 215 161 254 l37 15 -20 83 c-10 45 -20 83 -21 84 -1 1
-614 -142 -1362 -317z"/>
<path d="M0 3150 c0 -80 2 -90 18 -90 37 0 111 -32 150 -66 119 -102 125 -303
11 -411 -40 -37 -113 -72 -151 -73 l-28 0 0 -78 0 -79 60 -17 c117 -32 200
-141 200 -262 0 -138 -79 -241 -211 -275 l-49 -13 0 -78 0 -78 28 0 c15 0 51
-12 80 -26 165 -82 206 -296 83 -436 -37 -42 -122 -88 -163 -88 l-28 0 0 -90
0 -90 2185 0 2185 0 0 90 0 90 -28 0 c-15 0 -51 12 -80 26 -165 82 -206 296
-83 436 37 42 122 88 163 88 l28 0 0 78 0 78 -49 13 c-176 45 -263 232 -185
397 27 57 109 122 175 141 l59 16 0 79 0 78 -27 0 c-40 0 -123 42 -160 81
-108 114 -98 307 21 404 42 34 111 65 147 65 17 0 19 9 19 90 l0 90 -2185 0
-2185 0 0 -90z m3472 -264 c-4 -64 0 -82 23 -135 48 -106 140 -169 262 -179
l63 -5 0 -518 0 -519 -53 0 c-84 0 -144 -26 -208 -89 -64 -65 -89 -124 -89
-213 l0 -58 -1287 0 -1288 0 0 93 c0 76 -4 99 -23 134 -55 104 -143 162 -254
168 l-63 4 -3 519 -2 519 72 5 c86 6 135 28 196 89 51 52 82 129 82 204 l0 55
1288 0 1287 0 -3 -74z"/>
<path d="M2270 2626 l-455 -62 -3 -376 -2 -376 -63 5 c-185 15 -330 -124 -273
-260 33 -79 149 -135 253 -123 70 8 110 25 158 67 74 65 75 70 75 461 l0 348
23 5 c38 8 576 85 597 85 19 0 20 -7 20 -258 l0 -257 -81 4 c-74 3 -85 1 -145
-29 -136 -67 -166 -198 -67 -292 45 -43 99 -61 181 -61 61 1 83 6 129 29 31
16 70 46 87 67 l31 39 3 524 c1 288 -1 524 -5 523 -5 -1 -213 -29 -463 -63z"/>
</g>
</svg>
