<?xml version="1.0" standalone="no"?>
<!DOCTYPE svg PUBLIC "-//W3C//DTD SVG 20010904//EN"
 "http://www.w3.org/TR/2001/REC-SVG-20010904/DTD/svg10.dtd">
<svg version="1.0" xmlns="http://www.w3.org/2000/svg"
 width="512.000000pt" height="512.000000pt" viewBox="0 0 512.000000 512.000000"
 preserveAspectRatio="xMidYMid meet">

<g transform="translate(0.000000,512.000000) scale(0.100000,-0.100000)"
fill="#000000" stroke="none">
<path d="M2455 4373 c-417 -38 -784 -299 -966 -687 -112 -240 -130 -539 -47
-796 70 -219 230 -442 416 -582 l62 -47 -109 -54 c-225 -113 -429 -283 -582
-486 -134 -177 -249 -433 -294 -648 -18 -91 -39 -298 -31 -318 5 -13 29 -15
158 -13 l153 3 7 100 c22 323 158 616 398 855 199 199 444 328 714 377 121 21
333 21 456 -1 613 -109 1066 -613 1108 -1231 l7 -100 155 0 155 0 -3 75 c-11
285 -132 611 -323 870 -85 115 -263 290 -379 373 -52 37 -152 95 -222 130 -70
34 -127 64 -127 67 -1 3 26 25 60 50 90 65 246 235 308 335 60 96 110 211 143
332 18 66 22 104 22 258 0 163 -3 189 -27 278 -89 333 -317 604 -632 753 -175
83 -395 124 -580 107z m192 -324 c175 -23 333 -101 465 -227 129 -123 206
-258 243 -428 24 -105 16 -300 -15 -399 -87 -276 -298 -487 -575 -575 -94 -30
-281 -38 -380 -17 -98 21 -218 69 -295 119 -93 59 -226 199 -277 289 -107 189
-138 408 -88 619 22 93 105 254 168 328 191 222 470 330 754 291z"/>
<path d="M1106 3728 c-290 -26 -571 -235 -681 -506 -99 -244 -57 -527 110
-750 26 -35 69 -82 95 -104 l48 -42 -66 -38 c-316 -185 -516 -457 -578 -784
-9 -51 -14 -120 -12 -165 3 -70 6 -81 33 -110 57 -60 127 -74 202 -40 60 28
74 56 84 169 20 222 91 382 238 536 151 157 319 235 564 261 97 10 133 17 149
31 70 64 62 188 -16 239 -13 9 -72 22 -129 30 -154 20 -242 62 -339 161 -163
165 -186 439 -53 638 20 31 58 74 84 97 85 74 230 129 340 129 48 0 119 37
142 74 11 18 19 49 19 77 0 90 -57 114 -234 97z"/>
<path d="M3895 3732 c-54 -5 -74 -12 -95 -34 -27 -29 -27 -101 0 -146 24 -38
88 -71 141 -72 185 -1 377 -119 456 -280 41 -83 52 -136 53 -236 0 -171 -80
-324 -222 -422 -69 -47 -142 -72 -256 -87 -57 -8 -115 -21 -128 -30 -78 -51
-86 -175 -16 -239 16 -14 52 -21 149 -31 249 -27 415 -105 570 -268 129 -136
204 -296 225 -482 5 -49 12 -105 14 -123 15 -101 169 -147 254 -75 46 38 60
73 60 151 0 357 -230 718 -592 930 l-66 38 48 42 c100 86 191 235 232 379 29
102 31 286 5 383 -89 323 -389 570 -727 599 -41 3 -88 5 -105 3z"/>
</g>
</svg>
